<svg width="14" height="16" viewBox="0 0 14 16" fill="none" xmlns="http://www.w3.org/2000/svg">
<path fill-rule="evenodd" clip-rule="evenodd" d="M2 0C1.46957 0 0.960859 0.210714 0.585786 0.585786C0.210714 0.960859 0 1.46957 0 2V16L3.5 14L7 16L10.5 14L14 16V2C14 1.46957 13.7893 0.960859 13.4142 0.585786C13.0391 0.210714 12.5304 0 12 0H2ZM4.5 3C4.10218 3 3.72064 3.15804 3.43934 3.43934C3.15804 3.72064 3 4.10218 3 4.5C3 4.89782 3.15804 5.27936 3.43934 5.56066C3.72064 5.84196 4.10218 6 4.5 6C4.89782 6 5.27936 5.84196 5.56066 5.56066C5.84196 5.27936 6 4.89782 6 4.5C6 4.10218 5.84196 3.72064 5.56066 3.43934C5.27936 3.15804 4.89782 3 4.5 3ZM10.707 3.293C10.5195 3.10553 10.2652 3.00021 10 3.00021C9.73484 3.00021 9.48053 3.10553 9.293 3.293L3.293 9.293C3.19749 9.38525 3.12131 9.49559 3.0689 9.6176C3.01649 9.7396 2.9889 9.87082 2.98775 10.0036C2.9866 10.1364 3.0119 10.2681 3.06218 10.391C3.11246 10.5139 3.18671 10.6255 3.2806 10.7194C3.3745 10.8133 3.48615 10.8875 3.60905 10.9378C3.73194 10.9881 3.86362 11.0134 3.9964 11.0123C4.12918 11.0111 4.2604 10.9835 4.3824 10.9311C4.50441 10.8787 4.61475 10.8025 4.707 10.707L10.707 4.707C10.8945 4.51947 10.9998 4.26516 10.9998 4C10.9998 3.73484 10.8945 3.48053 10.707 3.293ZM9.5 8C9.10218 8 8.72064 8.15804 8.43934 8.43934C8.15804 8.72064 8 9.10218 8 9.5C8 9.89782 8.15804 10.2794 8.43934 10.5607C8.72064 10.842 9.10218 11 9.5 11C9.89782 11 10.2794 10.842 10.5607 10.5607C10.842 10.2794 11 9.89782 11 9.5C11 9.10218 10.842 8.72064 10.5607 8.43934C10.2794 8.15804 9.89782 8 9.5 8Z" fill="black"/>
</svg>
