<svg width="18" height="20" viewBox="0 0 18 20" fill="none" xmlns="http://www.w3.org/2000/svg">
<path d="M8.3 19.7327L6 17.497H2C1.45 17.497 0.979 17.3068 0.587 16.9264C0.195667 16.5453 0 16.0875 0 15.5529V1.94411C0 1.40948 0.195667 0.95164 0.587 0.570595C0.979 0.190198 1.45 0 2 0H16C16.55 0 17.021 0.190198 17.413 0.570595C17.8043 0.95164 18 1.40948 18 1.94411V15.5529C18 16.0875 17.8043 16.5453 17.413 16.9264C17.021 17.3068 16.55 17.497 16 17.497H12L9.7 19.7327C9.51667 19.9109 9.28333 20 9 20C8.71667 20 8.48333 19.9109 8.3 19.7327ZM8.95 14.3864C9.3 14.3864 9.596 14.2691 9.838 14.0345C10.0793 13.7993 10.2 13.5115 10.2 13.1713C10.2 12.8311 10.0793 12.5434 9.838 12.3081C9.596 12.0736 9.3 11.9563 8.95 11.9563C8.6 11.9563 8.304 12.0736 8.062 12.3081C7.82067 12.5434 7.7 12.8311 7.7 13.1713C7.7 13.5115 7.82067 13.7993 8.062 14.0345C8.304 14.2691 8.6 14.3864 8.95 14.3864ZM9.95 9.81774C10 9.55853 10.0877 9.33171 10.213 9.1373C10.3377 8.94289 10.5833 8.66748 10.95 8.31106C11.5667 7.71162 11.9833 7.2256 12.2 6.85298C12.4167 6.48036 12.525 6.05913 12.525 5.58931C12.525 4.76306 12.2127 4.07841 11.588 3.53536C10.9627 2.99295 10.175 2.72175 9.225 2.72175C8.50833 2.72175 7.87067 2.86335 7.312 3.14654C6.754 3.43038 6.325 3.80721 6.025 4.27704C5.875 4.50385 5.83333 4.74265 5.9 4.99344C5.96667 5.24488 6.11667 5.4192 6.35 5.5164C6.58333 5.61361 6.81267 5.61782 7.038 5.52904C7.26267 5.43961 7.44167 5.28959 7.575 5.07898C7.74167 4.85217 7.96667 4.67817 8.25 4.55699C8.53333 4.43516 8.825 4.37424 9.125 4.37424C9.59167 4.37424 9.96667 4.49575 10.25 4.73876C10.5333 4.98177 10.675 5.28959 10.675 5.66221C10.675 5.97003 10.5793 6.27784 10.388 6.58566C10.196 6.89348 9.9 7.2175 9.5 7.55771C9.06667 7.93034 8.73333 8.31106 8.5 8.69988C8.26667 9.0887 8.15 9.45322 8.15 9.79344C8.15 10.0203 8.23767 10.2147 8.413 10.3767C8.58767 10.5387 8.8 10.6197 9.05 10.6197C9.28333 10.6197 9.479 10.5429 9.637 10.3893C9.79567 10.2351 9.9 10.0446 9.95 9.81774Z" fill="black"/>
</svg>
