<svg width="19" height="17" viewBox="0 0 19 17" fill="none" xmlns="http://www.w3.org/2000/svg">
<path d="M5.09773 6.85148H4.50953C3.70685 6.82247 2.90676 6.95874 2.15893 7.25182C1.41111 7.5449 0.731489 7.98855 0.162262 8.55523L0 8.74454V14.3426H2.75846V11.1649L3.13031 10.7458L3.29933 10.5497C4.17955 9.64543 5.2754 8.98001 6.48372 8.61608C5.87875 8.15575 5.40163 7.54829 5.09773 6.85148Z" fill="black"/>
<path d="M18.1733 8.53521C17.6041 7.96853 16.9245 7.52488 16.1767 7.2318C15.4288 6.93872 14.6287 6.80245 13.8261 6.83146C13.5799 6.83216 13.3339 6.8457 13.0891 6.87203C12.7795 7.52574 12.3154 8.09426 11.7369 8.52845C13.0269 8.88533 14.1955 9.58646 15.1174 10.5567L15.2864 10.746L15.6515 11.1652V14.3496H18.3153V8.72452L18.1733 8.53521Z" fill="black"/>
<path d="M4.48927 5.53317H4.69885C4.60147 4.69701 4.74819 3.85054 5.1213 3.09592C5.49441 2.34131 6.07795 1.71082 6.8015 1.28056C6.53922 0.879869 6.17738 0.554167 5.7514 0.335343C5.32542 0.116518 4.84992 0.0120744 4.37145 0.0322376C3.89298 0.0524009 3.42795 0.19648 3.02189 0.450367C2.61583 0.704254 2.28267 1.05924 2.05503 1.48058C1.82739 1.90191 1.71308 2.37514 1.72328 2.85392C1.73349 3.33271 1.86786 3.80064 2.11325 4.21189C2.35863 4.62314 2.70661 4.96361 3.12312 5.19997C3.53962 5.43633 4.01037 5.56046 4.48927 5.56022V5.53317Z" fill="black"/>
<path d="M13.5015 5.0262C13.5097 5.18159 13.5097 5.33731 13.5015 5.49271C13.6313 5.51327 13.7623 5.52457 13.8937 5.52651H14.0221C14.4989 5.50109 14.961 5.35264 15.3634 5.09562C15.7658 4.83861 16.0948 4.48178 16.3183 4.05988C16.5419 3.63797 16.6524 3.16538 16.639 2.68809C16.6257 2.21081 16.489 1.74511 16.2423 1.33633C15.9956 0.927551 15.6472 0.58962 15.2311 0.355439C14.815 0.121258 14.3454 -0.00119237 13.8679 8.75188e-06C13.3905 0.00120987 12.9215 0.126022 12.5065 0.362293C12.0916 0.598565 11.745 0.938244 11.5003 1.34826C12.1122 1.74779 12.6154 2.29297 12.9647 2.93489C13.314 3.57682 13.4984 4.29541 13.5015 5.0262Z" fill="black"/>
<path d="M9.06638 8.05501C10.7355 8.05501 12.0885 6.70195 12.0885 5.03287C12.0885 3.3638 10.7355 2.01074 9.06638 2.01074C7.39731 2.01074 6.04425 3.3638 6.04425 5.03287C6.04425 6.70195 7.39731 8.05501 9.06638 8.05501Z" fill="black"/>
<path d="M9.22866 9.66426C8.34572 9.62861 7.46468 9.77196 6.63858 10.0857C5.81247 10.3994 5.05837 10.877 4.42165 11.4897L4.25262 11.679V15.9587C4.25526 16.0981 4.28534 16.2356 4.34113 16.3634C4.39693 16.4911 4.47735 16.6067 4.57781 16.7034C4.67826 16.8001 4.79678 16.876 4.92659 16.9269C5.05641 16.9778 5.19497 17.0026 5.33437 16.9999H13.1027C13.2421 17.0026 13.3806 16.9778 13.5104 16.9269C13.6403 16.876 13.7588 16.8001 13.8592 16.7034C13.9597 16.6067 14.0401 16.4911 14.0959 16.3634C14.1517 16.2356 14.1818 16.0981 14.1844 15.9587V11.6925L14.0222 11.4897C13.3896 10.8751 12.6381 10.3961 11.8138 10.0823C10.9895 9.76836 10.1099 9.62612 9.22866 9.66426Z" fill="black"/>
</svg>
