<svg width="16" height="16" viewBox="0 0 16 16" fill="none" xmlns="http://www.w3.org/2000/svg">
<path d="M5.00518 4.23517C5.1633 3.41355 5.37883 2.67569 5.63577 2.0517C5.91906 1.36184 6.24565 0.833858 6.58447 0.486574C6.92141 0.140231 7.24047 0 7.52941 0C7.81836 0 8.13741 0.140231 8.47436 0.486574C8.81318 0.834799 9.13977 1.36184 9.42306 2.0517C9.68 2.67569 9.89553 3.41355 10.0536 4.23517H5.00518ZM4.76518 1.69407C4.96608 1.18762 5.22742 0.707288 5.54353 0.263522C4.50927 0.54746 3.5474 1.04854 2.722 1.73338C1.8966 2.41822 1.22662 3.27109 0.756711 4.23517H4.048C4.2193 3.28743 4.46306 2.42628 4.76518 1.69407ZM10.2936 1.69407C10.0927 1.18795 9.83133 0.707944 9.5153 0.264463C10.5495 0.548297 11.5113 1.04923 12.3367 1.73391C13.1621 2.41858 13.8321 3.27127 14.3021 4.23517H11.0108C10.8395 3.28743 10.5958 2.42628 10.2936 1.69407ZM11.1529 5.17632H14.6842C14.9045 5.84642 15.0325 6.55793 15.0551 7.29673C14.362 6.82859 13.5432 6.5818 12.7068 6.58898C12.1986 6.58898 11.7205 6.67369 11.2819 6.82898C11.263 6.27647 11.22 5.72506 11.1529 5.17632ZM10.352 7.30143C10.3443 6.59078 10.295 5.88119 10.2042 5.17632H4.85459C4.75448 5.9566 4.70481 6.74252 4.70589 7.52919C4.70589 8.3527 4.75859 9.14232 4.85459 9.88206H8.60236C8.85836 8.82045 9.47765 7.89718 10.352 7.30143ZM8.47341 10.8232H5.00518C5.1633 11.6448 5.37883 12.3827 5.63577 13.0067C5.91906 13.6965 6.24565 14.2245 6.58447 14.5718C6.92141 14.9181 7.24047 15.0584 7.52941 15.0584C7.81836 15.0584 8.13741 14.9181 8.47436 14.5718C8.71341 14.3271 8.94683 13.9911 9.1633 13.5714C8.70118 12.6923 8.47059 11.8114 8.47059 10.9945L8.47341 10.8232ZM0.756711 10.8232C1.22683 11.7872 1.897 12.64 2.72256 13.3246C3.54813 14.0093 4.51013 14.5102 5.54447 14.7939C5.22816 14.3508 4.9665 13.8711 4.76518 13.3653C4.464 12.6312 4.2193 11.7709 4.048 10.8232H0.756711ZM3.90589 9.88206H0.374593C0.125518 9.12265 -0.000930413 8.3284 5.15365e-06 7.52919C5.15365e-06 6.70757 0.13177 5.917 0.374593 5.17632H3.90589C3.81365 5.92453 3.76471 6.71416 3.76471 7.52919C3.76471 8.34423 3.81365 9.13385 3.90589 9.88206ZM16 10.9945C16 9.08115 14.6212 7.53013 12.7068 7.53013C10.7934 7.53013 9.41177 9.08115 9.41177 10.9945C9.41177 12.4288 10.336 14.3168 12.4762 15.9224C12.6127 16.0259 12.8009 16.0259 12.9374 15.9224C15.0795 14.3168 16 12.4288 16 10.9945ZM14.1176 10.8232C14.1176 11.1976 13.9689 11.5567 13.7042 11.8215C13.4394 12.0862 13.0803 12.2349 12.7059 12.2349C12.3315 12.2349 11.9724 12.0862 11.7076 11.8215C11.4429 11.5567 11.2941 11.1976 11.2941 10.8232C11.2941 10.4488 11.4429 10.0897 11.7076 9.82497C11.9724 9.56022 12.3315 9.41149 12.7059 9.41149C13.0803 9.41149 13.4394 9.56022 13.7042 9.82497C13.9689 10.0897 14.1176 10.4488 14.1176 10.8232Z" fill="black"/>
</svg>
