<svg width="15" height="18" viewBox="0 0 15 18" fill="none" xmlns="http://www.w3.org/2000/svg">
<path d="M5.35714 3.9375C5.35714 2.69648 6.31808 1.6875 7.5 1.6875C8.68192 1.6875 9.64286 2.69648 9.64286 3.9375V5.625H5.35714V3.9375ZM3.75 5.625H1.60714C0.719866 5.625 0 6.38086 0 7.3125V14.625C0 16.4883 1.43973 18 3.21429 18H11.7857C13.5603 18 15 16.4883 15 14.625V7.3125C15 6.38086 14.2801 5.625 13.3929 5.625H11.25V3.9375C11.25 1.76133 9.57254 0 7.5 0C5.42746 0 3.75 1.76133 3.75 3.9375V5.625ZM4.55357 9C4.10826 9 3.75 8.62383 3.75 8.15625C3.75 7.68867 4.10826 7.3125 4.55357 7.3125C4.99888 7.3125 5.35714 7.68867 5.35714 8.15625C5.35714 8.62383 4.99888 9 4.55357 9ZM11.25 8.15625C11.25 8.62383 10.8917 9 10.4464 9C10.0011 9 9.64286 8.62383 9.64286 8.15625C9.64286 7.68867 10.0011 7.3125 10.4464 7.3125C10.8917 7.3125 11.25 7.68867 11.25 8.15625Z" fill="black"/>
</svg>
