<svg width="17" height="16" viewBox="0 0 17 16" fill="none" xmlns="http://www.w3.org/2000/svg">
<path d="M2.42854 3.38461C2.42854 2.48696 2.78035 1.62607 3.40658 0.99133C4.0328 0.356592 4.88215 0 5.76777 0C6.65339 0 7.50274 0.356592 8.12897 0.99133C8.7552 1.62607 9.10701 2.48696 9.10701 3.38461C9.10701 4.28227 8.7552 5.14316 8.12897 5.7779C7.50274 6.41263 6.65339 6.76923 5.76777 6.76923C4.88215 6.76923 4.0328 6.41263 3.40658 5.7779C2.78035 5.14316 2.42854 4.28227 2.42854 3.38461ZM10.3213 5.23077C10.3213 4.86711 10.3919 4.50701 10.5292 4.17103C10.6665 3.83505 10.8678 3.52977 11.1215 3.27262C11.3752 3.01548 11.6764 2.8115 12.0078 2.67233C12.3393 2.53316 12.6946 2.46154 13.0534 2.46154C13.4122 2.46154 13.7674 2.53316 14.0989 2.67233C14.4304 2.8115 14.7316 3.01548 14.9853 3.27262C15.239 3.52977 15.4402 3.83505 15.5775 4.17103C15.7148 4.50701 15.7855 4.86711 15.7855 5.23077C15.7855 5.96521 15.4976 6.66957 14.9853 7.18891C14.4729 7.70824 13.778 7.99999 13.0534 7.99999C12.3288 7.99999 11.6339 7.70824 11.1215 7.18891C10.6091 6.66957 10.3213 5.96521 10.3213 5.23077ZM0 13.8461C2.27944e-08 12.2956 0.607674 10.8087 1.68934 9.71229C2.77101 8.61593 4.23806 7.99999 5.76777 7.99999C7.29748 7.99999 8.76453 8.61593 9.8462 9.71229C10.9279 10.8087 11.5355 12.2956 11.5355 13.8461V13.8486L11.5347 13.9462C11.533 14.0506 11.5051 14.1528 11.4537 14.2432C11.4023 14.3336 11.3291 14.4093 11.2409 14.4632C9.58883 15.4716 7.69624 16.003 5.76777 16C3.76666 16 1.89345 15.4388 0.295472 14.4632C0.207115 14.4094 0.133705 14.3338 0.0821546 14.2434C0.0306046 14.1529 0.00261095 14.0507 0.00080955 13.9462L0 13.8461ZM12.7498 13.8486L12.749 13.9668C12.7445 14.2402 12.6801 14.5093 12.5604 14.7544C13.9736 14.8428 15.3851 14.5572 16.6565 13.9257C16.7548 13.877 16.8383 13.8023 16.8982 13.7094C16.958 13.6165 16.992 13.509 16.9965 13.3981C17.0251 12.7099 16.8778 12.0259 16.569 11.4123C16.2602 10.7987 15.8003 10.2763 15.2338 9.89579C14.6674 9.51524 14.0136 9.28942 13.3357 9.24018C12.6579 9.19095 11.9789 9.31997 11.3647 9.61476C12.2659 10.8362 12.7516 12.321 12.749 13.8461L12.7498 13.8486Z" fill="black"/>
</svg>
