<svg width="17" height="16" viewBox="0 0 17 16" fill="none" xmlns="http://www.w3.org/2000/svg">
<path d="M2.89087 1.47289C3.22734 1.37987 3.57446 1.33294 3.92308 1.33333H13.0769C13.4344 1.33333 13.7796 1.38222 14.1083 1.47289C13.8909 1.0302 13.557 0.657952 13.1439 0.397817C12.7307 0.137682 12.2548 -6.54629e-05 11.7692 2.8977e-07H5.23077C4.74508 -0.000230529 4.26892 0.137439 3.85564 0.397583C3.44237 0.657727 3.1083 1.03007 2.89087 1.47289ZM0 8C0 7.29276 0.275549 6.61448 0.766029 6.11438C1.25651 5.61428 1.92174 5.33333 2.61538 5.33333H14.3846C15.0783 5.33333 15.7435 5.61428 16.234 6.11438C16.7245 6.61448 17 7.29276 17 8V13.3333C17 14.0406 16.7245 14.7189 16.234 15.219C15.7435 15.719 15.0783 16 14.3846 16H2.61538C1.92174 16 1.25651 15.719 0.766029 15.219C0.275549 14.7189 0 14.0406 0 13.3333V8ZM2.61538 4C2.25795 4 1.91272 4.04889 1.58318 4.13956C1.80061 3.69674 2.13467 3.32439 2.54795 3.06425C2.96123 2.80411 3.43739 2.66644 3.92308 2.66667H13.0769C13.5625 2.6666 14.0384 2.80435 14.4515 3.06448C14.8647 3.32462 15.1986 3.69687 15.4159 4.13956C15.0798 4.04661 14.7329 3.99968 14.3846 4H2.61538Z" fill="black"/>
</svg>
