<svg width="18" height="19" viewBox="0 0 18 19" fill="none" xmlns="http://www.w3.org/2000/svg">
<path d="M14.5519 1.81513L15.0612 5.05882L17.9917 6.56303L16.5139 9.5042L18 12.4454L15.0445 13.9496L14.5352 17.1933L11.2876 16.6807L8.97495 19L6.65399 16.6471L3.43135 17.1849L2.91373 13.916L0 12.4202L1.48609 9.47899L0.00834879 6.56303L2.93878 5.04202L3.44805 1.82353L6.67903 2.36134L9 0L11.3126 2.32773L14.5519 1.81513ZM6.9128 5.30252C6.58067 5.30252 6.26213 5.43532 6.02728 5.67171C5.79242 5.9081 5.66048 6.22872 5.66048 6.56303C5.66048 6.89733 5.79242 7.21795 6.02728 7.45434C6.26213 7.69073 6.58067 7.82353 6.9128 7.82353C7.24494 7.82353 7.56347 7.69073 7.79832 7.45434C8.03318 7.21795 8.16512 6.89733 8.16512 6.56303C8.16512 6.22872 8.03318 5.9081 7.79832 5.67171C7.56347 5.43532 7.24494 5.30252 6.9128 5.30252ZM11.0872 11.1849C10.7551 11.1849 10.4365 11.3177 10.2017 11.5541C9.96682 11.7905 9.83488 12.1111 9.83488 12.4454C9.83488 12.7797 9.96682 13.1003 10.2017 13.3367C10.4365 13.5731 10.7551 13.7059 11.0872 13.7059C11.4193 13.7059 11.7379 13.5731 11.9727 13.3367C12.2076 13.1003 12.3395 12.7797 12.3395 12.4454C12.3395 12.1111 12.2076 11.7905 11.9727 11.5541C11.7379 11.3177 11.4193 11.1849 11.0872 11.1849ZM6.00278 13.7059L13.1744 6.4874L11.9972 5.30252L4.8256 12.521L6.00278 13.7059Z" fill="black"/>
</svg>
