<svg width="357" height="127" viewBox="0 0 357 127" fill="none" xmlns="http://www.w3.org/2000/svg">
<g filter="url(#filter0_dd_4801_1671)">
<rect x="12.25" y="12.25" width="332.5" height="79.5" rx="9.75" fill="white" stroke="black" stroke-width="0.5"/>
<path d="M203.083 91.75L224.757 113.602L180.868 91.75H203.083Z" fill="white" stroke="black" stroke-width="0.5"/>
<path d="M177.5 89.5L203.001 89V92H182.001L177.5 89.5Z" fill="white"/>
</g>
<path d="M114.332 43L110.678 30.4H111.686L114.944 41.722L118.454 30.4H119.588L123.116 41.722L126.356 30.4H127.364L123.71 43H122.558L119.03 31.642L115.484 43H114.332ZM131.874 33.802C133.194 33.802 134.262 34.27 135.078 35.206C135.906 36.142 136.32 37.252 136.32 38.536C136.32 38.584 136.314 38.656 136.302 38.752C136.302 38.848 136.302 38.92 136.302 38.968H128.148C128.256 39.976 128.658 40.792 129.354 41.416C130.062 42.028 130.932 42.334 131.964 42.334C132.684 42.334 133.314 42.184 133.854 41.884C134.394 41.584 134.802 41.188 135.078 40.696L135.87 41.164C135.498 41.788 134.97 42.286 134.286 42.658C133.602 43.018 132.822 43.198 131.946 43.198C130.566 43.198 129.432 42.76 128.544 41.884C127.656 40.996 127.212 39.868 127.212 38.5C127.212 37.156 127.644 36.04 128.508 35.152C129.384 34.252 130.506 33.802 131.874 33.802ZM131.874 34.666C130.854 34.666 130.002 34.984 129.318 35.62C128.634 36.256 128.244 37.078 128.148 38.086H135.384C135.288 37.018 134.904 36.184 134.232 35.584C133.572 34.972 132.786 34.666 131.874 34.666ZM137.974 43V29.86H138.874V43H137.974ZM145.32 43.198C143.964 43.198 142.836 42.748 141.936 41.848C141.036 40.948 140.586 39.832 140.586 38.5C140.586 37.168 141.036 36.052 141.936 35.152C142.836 34.252 143.964 33.802 145.32 33.802C146.196 33.802 146.988 34.012 147.696 34.432C148.404 34.84 148.92 35.398 149.244 36.106L148.506 36.538C148.242 35.962 147.822 35.506 147.246 35.17C146.682 34.834 146.04 34.666 145.32 34.666C144.24 34.666 143.334 35.038 142.602 35.782C141.87 36.514 141.504 37.42 141.504 38.5C141.504 39.58 141.87 40.492 142.602 41.236C143.334 41.968 144.24 42.334 145.32 42.334C146.04 42.334 146.682 42.166 147.246 41.83C147.822 41.494 148.26 41.038 148.56 40.462L149.316 40.912C148.956 41.608 148.416 42.166 147.696 42.586C146.988 42.994 146.196 43.198 145.32 43.198ZM154.872 43.198C153.552 43.198 152.43 42.748 151.506 41.848C150.594 40.936 150.138 39.82 150.138 38.5C150.138 37.18 150.594 36.07 151.506 35.17C152.43 34.258 153.552 33.802 154.872 33.802C156.18 33.802 157.29 34.258 158.202 35.17C159.126 36.07 159.588 37.18 159.588 38.5C159.588 39.82 159.126 40.936 158.202 41.848C157.29 42.748 156.18 43.198 154.872 43.198ZM152.154 41.218C152.898 41.962 153.804 42.334 154.872 42.334C155.94 42.334 156.84 41.962 157.572 41.218C158.304 40.474 158.67 39.568 158.67 38.5C158.67 37.432 158.304 36.526 157.572 35.782C156.84 35.038 155.94 34.666 154.872 34.666C153.804 34.666 152.898 35.038 152.154 35.782C151.422 36.526 151.056 37.432 151.056 38.5C151.056 39.568 151.422 40.474 152.154 41.218ZM170.916 33.802C171.9 33.802 172.692 34.108 173.292 34.72C173.892 35.332 174.192 36.19 174.192 37.294V43H173.292V37.294C173.292 36.454 173.07 35.806 172.626 35.35C172.194 34.894 171.618 34.666 170.898 34.666C170.094 34.666 169.44 34.942 168.936 35.494C168.444 36.046 168.198 36.874 168.198 37.978V43H167.298V37.294C167.298 36.454 167.088 35.806 166.668 35.35C166.26 34.894 165.702 34.666 164.994 34.666C164.202 34.666 163.536 34.948 162.996 35.512C162.468 36.064 162.204 36.886 162.204 37.978V43H161.304V34H162.204V35.548C162.828 34.384 163.794 33.802 165.102 33.802C165.762 33.802 166.338 33.964 166.83 34.288C167.322 34.6 167.682 35.05 167.91 35.638C168.222 35.026 168.642 34.57 169.17 34.27C169.71 33.958 170.292 33.802 170.916 33.802ZM180.337 33.802C181.657 33.802 182.725 34.27 183.541 35.206C184.369 36.142 184.783 37.252 184.783 38.536C184.783 38.584 184.777 38.656 184.765 38.752C184.765 38.848 184.765 38.92 184.765 38.968H176.611C176.719 39.976 177.121 40.792 177.817 41.416C178.525 42.028 179.395 42.334 180.427 42.334C181.147 42.334 181.777 42.184 182.317 41.884C182.857 41.584 183.265 41.188 183.541 40.696L184.333 41.164C183.961 41.788 183.433 42.286 182.749 42.658C182.065 43.018 181.285 43.198 180.409 43.198C179.029 43.198 177.895 42.76 177.007 41.884C176.119 40.996 175.675 39.868 175.675 38.5C175.675 37.156 176.107 36.04 176.971 35.152C177.847 34.252 178.969 33.802 180.337 33.802ZM180.337 34.666C179.317 34.666 178.465 34.984 177.781 35.62C177.097 36.256 176.707 37.078 176.611 38.086H183.847C183.751 37.018 183.367 36.184 182.695 35.584C182.035 34.972 181.249 34.666 180.337 34.666ZM195.394 34.882H192.712V40.732C192.712 41.248 192.808 41.62 193 41.848C193.192 42.076 193.486 42.208 193.882 42.244C194.278 42.268 194.782 42.25 195.394 42.19V43C194.182 43.18 193.276 43.096 192.676 42.748C192.088 42.4 191.794 41.728 191.794 40.732V34.882H189.814V34H191.794V31.75L192.712 31.48V34H195.394V34.882ZM200.68 43.198C199.36 43.198 198.238 42.748 197.314 41.848C196.402 40.936 195.946 39.82 195.946 38.5C195.946 37.18 196.402 36.07 197.314 35.17C198.238 34.258 199.36 33.802 200.68 33.802C201.988 33.802 203.098 34.258 204.01 35.17C204.934 36.07 205.396 37.18 205.396 38.5C205.396 39.82 204.934 40.936 204.01 41.848C203.098 42.748 201.988 43.198 200.68 43.198ZM197.962 41.218C198.706 41.962 199.612 42.334 200.68 42.334C201.748 42.334 202.648 41.962 203.38 41.218C204.112 40.474 204.478 39.568 204.478 38.5C204.478 37.432 204.112 36.526 203.38 35.782C202.648 35.038 201.748 34.666 200.68 34.666C199.612 34.666 198.706 35.038 197.962 35.782C197.23 36.526 196.864 37.432 196.864 38.5C196.864 39.568 197.23 40.474 197.962 41.218ZM216.069 34.882H213.387V40.732C213.387 41.248 213.483 41.62 213.675 41.848C213.867 42.076 214.161 42.208 214.557 42.244C214.953 42.268 215.457 42.25 216.069 42.19V43C214.857 43.18 213.951 43.096 213.351 42.748C212.763 42.4 212.469 41.728 212.469 40.732V34.882H210.489V34H212.469V31.75L213.387 31.48V34H216.069V34.882ZM221.901 33.802C222.969 33.802 223.815 34.132 224.439 34.792C225.075 35.44 225.393 36.31 225.393 37.402V43H224.475V37.402C224.475 36.562 224.241 35.896 223.773 35.404C223.317 34.912 222.669 34.666 221.829 34.666C220.905 34.666 220.149 34.972 219.561 35.584C218.973 36.196 218.679 37.084 218.679 38.248V43H217.779V30.4H218.679V35.71C219.327 34.438 220.401 33.802 221.901 33.802ZM231.539 33.802C232.859 33.802 233.927 34.27 234.743 35.206C235.571 36.142 235.985 37.252 235.985 38.536C235.985 38.584 235.979 38.656 235.967 38.752C235.967 38.848 235.967 38.92 235.967 38.968H227.813C227.921 39.976 228.323 40.792 229.019 41.416C229.727 42.028 230.597 42.334 231.629 42.334C232.349 42.334 232.979 42.184 233.519 41.884C234.059 41.584 234.467 41.188 234.743 40.696L235.535 41.164C235.163 41.788 234.635 42.286 233.951 42.658C233.267 43.018 232.487 43.198 231.611 43.198C230.231 43.198 229.097 42.76 228.209 41.884C227.321 40.996 226.877 39.868 226.877 38.5C226.877 37.156 227.309 36.04 228.173 35.152C229.049 34.252 230.171 33.802 231.539 33.802ZM231.539 34.666C230.519 34.666 229.667 34.984 228.983 35.62C228.299 36.256 227.909 37.078 227.813 38.086H235.049C234.953 37.018 234.569 36.184 233.897 35.584C233.237 34.972 232.451 34.666 231.539 34.666ZM38.4247 54.2C40.6327 54.2 42.4007 55.048 43.7287 56.744C45.0567 58.44 45.5127 60.472 45.0967 62.84C44.6647 65.24 43.5687 67.2 41.8087 68.72C40.0487 70.24 37.9367 71 35.4727 71H28.6327L31.5847 54.2H38.4247ZM40.9207 62.528C41.1287 61.264 40.9367 60.256 40.3447 59.504C39.7527 58.736 38.8727 58.352 37.7047 58.352H35.2807L33.7687 66.848H36.0727C37.2887 66.848 38.3367 66.456 39.2167 65.672C40.1127 64.872 40.6807 63.824 40.9207 62.528ZM52.5604 58.664C54.3684 58.664 55.7844 59.28 56.8084 60.512C57.8324 61.728 58.1844 63.216 57.8644 64.976C57.8004 65.456 57.6644 65.952 57.4564 66.464H49.2244C49.4484 67.44 50.2164 67.928 51.5284 67.928C52.4884 67.928 53.2804 67.64 53.9044 67.064L56.4484 69.392C55.0564 70.688 53.3124 71.336 51.2164 71.336C49.1364 71.336 47.5684 70.704 46.5124 69.44C45.4724 68.176 45.1044 66.616 45.4084 64.76C45.6964 63 46.5124 61.544 47.8564 60.392C49.2004 59.24 50.7684 58.664 52.5604 58.664ZM49.7044 63.68H54.2404C54.1604 62.576 53.5284 62.024 52.3444 62.024C51.1604 62.024 50.2804 62.576 49.7044 63.68ZM68.4347 59H72.4187L70.3067 71H66.3227L66.4907 70.064C65.5627 70.912 64.3947 71.336 62.9867 71.336C61.2747 71.336 60.0027 70.688 59.1707 69.392C58.3547 68.096 58.0907 66.576 58.3787 64.832C58.6507 63.136 59.3707 61.688 60.5387 60.488C61.7067 59.272 63.1547 58.664 64.8827 58.664C66.4187 58.664 67.5227 59.216 68.1947 60.32L68.4347 59ZM62.7227 66.896C63.0907 67.376 63.6507 67.616 64.4027 67.616C65.1547 67.616 65.8027 67.384 66.3467 66.92C66.8907 66.456 67.2347 65.84 67.3787 65.072V65C67.5067 64.216 67.3867 63.584 67.0187 63.104C66.6507 62.624 66.0827 62.384 65.3147 62.384C64.5627 62.384 63.9147 62.624 63.3707 63.104C62.8267 63.584 62.4907 64.216 62.3627 65C62.2347 65.784 62.3547 66.416 62.7227 66.896ZM72.0403 71L73.3843 63.296L75.1123 53.48H79.0963L77.3683 63.416L76.0243 71H72.0403ZM85.3776 58.664C87.1856 58.664 88.6016 59.28 89.6256 60.512C90.6496 61.728 91.0016 63.216 90.6816 64.976C90.6176 65.456 90.4816 65.952 90.2736 66.464H82.0416C82.2656 67.44 83.0336 67.928 84.3456 67.928C85.3056 67.928 86.0976 67.64 86.7216 67.064L89.2656 69.392C87.8736 70.688 86.1296 71.336 84.0336 71.336C81.9536 71.336 80.3856 70.704 79.3296 69.44C78.2896 68.176 77.9216 66.616 78.2256 64.76C78.5136 63 79.3296 61.544 80.6736 60.392C82.0176 59.24 83.5856 58.664 85.3776 58.664ZM82.5216 63.68H87.0576C86.9776 62.576 86.3456 62.024 85.1616 62.024C83.9776 62.024 83.0976 62.576 82.5216 63.68ZM96.3559 61.256C96.7239 60.44 97.2679 59.824 97.9879 59.408C98.7079 58.976 99.5159 58.76 100.412 58.76L99.6679 63.176C98.7559 63.048 97.8839 63.208 97.0519 63.656C96.2359 64.104 95.7319 64.896 95.5399 66.032L95.5879 65.648L94.6519 71H90.6679L92.7799 59H96.7639L96.3559 61.256ZM124.279 54.2L121.327 71H117.055L118.639 61.928L113.383 68.696H112.951L110.095 61.808L108.487 71H104.191L107.143 54.2H111.439L114.175 61.448L119.719 54.2H124.279ZM133.811 59H137.795L135.683 71H131.699L131.867 70.064C130.939 70.912 129.771 71.336 128.363 71.336C126.651 71.336 125.379 70.688 124.547 69.392C123.731 68.096 123.467 66.576 123.755 64.832C124.027 63.136 124.747 61.688 125.915 60.488C127.083 59.272 128.531 58.664 130.259 58.664C131.795 58.664 132.899 59.216 133.571 60.32L133.811 59ZM128.099 66.896C128.467 67.376 129.027 67.616 129.779 67.616C130.531 67.616 131.179 67.384 131.723 66.92C132.267 66.456 132.611 65.84 132.755 65.072V65C132.883 64.216 132.763 63.584 132.395 63.104C132.027 62.624 131.459 62.384 130.691 62.384C129.939 62.384 129.291 62.624 128.747 63.104C128.203 63.584 127.867 64.216 127.739 65C127.611 65.784 127.731 66.416 128.099 66.896ZM146.777 58.664C148.073 58.664 149.065 59.12 149.753 60.032C150.457 60.928 150.673 62.192 150.401 63.824L149.129 71H145.145L146.321 64.328C146.417 63.688 146.329 63.216 146.057 62.912C145.785 62.592 145.377 62.432 144.833 62.432C144.225 62.432 143.713 62.616 143.297 62.984C142.897 63.352 142.633 63.896 142.505 64.616V64.592L141.377 71H137.393L139.505 59H143.489L143.273 60.224C144.185 59.184 145.353 58.664 146.777 58.664ZM161.228 59H165.212L163.1 71H159.116L159.284 70.064C158.356 70.912 157.188 71.336 155.78 71.336C154.068 71.336 152.796 70.688 151.964 69.392C151.148 68.096 150.884 66.576 151.172 64.832C151.444 63.136 152.164 61.688 153.332 60.488C154.5 59.272 155.948 58.664 157.676 58.664C159.212 58.664 160.316 59.216 160.988 60.32L161.228 59ZM155.516 66.896C155.884 67.376 156.444 67.616 157.196 67.616C157.948 67.616 158.596 67.384 159.14 66.92C159.684 66.456 160.028 65.84 160.172 65.072V65C160.3 64.216 160.18 63.584 159.812 63.104C159.444 62.624 158.876 62.384 158.108 62.384C157.356 62.384 156.708 62.624 156.164 63.104C155.62 63.584 155.284 64.216 155.156 65C155.028 65.784 155.148 66.416 155.516 66.896ZM175.515 59H179.451L177.411 70.52C177.075 72.456 176.259 73.88 174.963 74.792C173.683 75.704 172.139 76.16 170.331 76.16C168.987 76.16 167.819 75.912 166.827 75.416C165.835 74.92 165.131 74.192 164.715 73.232L168.243 71.384C168.691 72.248 169.507 72.68 170.691 72.68C171.427 72.68 172.043 72.496 172.539 72.128C173.035 71.776 173.347 71.24 173.475 70.52L173.643 69.608C172.699 70.44 171.563 70.856 170.235 70.856C169.035 70.856 168.035 70.552 167.235 69.944C166.435 69.32 165.891 68.544 165.603 67.616C165.331 66.688 165.275 65.68 165.435 64.592C165.675 62.992 166.371 61.608 167.523 60.44C168.691 59.256 170.147 58.664 171.891 58.664C173.443 58.664 174.571 59.248 175.275 60.416L175.515 59ZM171.507 67.232C172.211 67.232 172.835 67.024 173.379 66.608C173.923 66.192 174.283 65.656 174.459 65L174.531 64.52C174.595 63.864 174.427 63.328 174.027 62.912C173.643 62.496 173.099 62.288 172.395 62.288C171.643 62.288 170.987 62.52 170.427 62.984C169.883 63.448 169.547 64.04 169.419 64.76C169.291 65.48 169.419 66.072 169.803 66.536C170.187 67 170.755 67.232 171.507 67.232ZM186.703 58.664C188.511 58.664 189.927 59.28 190.951 60.512C191.975 61.728 192.327 63.216 192.007 64.976C191.943 65.456 191.807 65.952 191.599 66.464H183.367C183.591 67.44 184.359 67.928 185.671 67.928C186.631 67.928 187.423 67.64 188.047 67.064L190.591 69.392C189.199 70.688 187.455 71.336 185.359 71.336C183.279 71.336 181.711 70.704 180.655 69.44C179.615 68.176 179.247 66.616 179.551 64.76C179.839 63 180.655 61.544 181.999 60.392C183.343 59.24 184.911 58.664 186.703 58.664ZM183.847 63.68H188.383C188.303 62.576 187.671 62.024 186.487 62.024C185.303 62.024 184.423 62.576 183.847 63.68ZM207.785 58.664C209.145 58.664 210.177 59.112 210.881 60.008C211.601 60.904 211.825 62.12 211.553 63.656L210.281 71H206.273L207.473 64.112C207.681 62.992 207.289 62.432 206.297 62.432C205.289 62.432 204.641 62.976 204.353 64.064L203.129 71H199.145L200.345 64.112C200.521 62.992 200.121 62.432 199.145 62.432C198.105 62.432 197.441 63.048 197.153 64.28L195.977 71H191.993L194.105 59H198.089L197.897 60.104C198.793 59.144 199.905 58.664 201.233 58.664C202.625 58.664 203.585 59.2 204.113 60.272C205.153 59.2 206.377 58.664 207.785 58.664ZM219.44 58.664C221.248 58.664 222.664 59.28 223.688 60.512C224.712 61.728 225.064 63.216 224.744 64.976C224.68 65.456 224.544 65.952 224.336 66.464H216.104C216.328 67.44 217.096 67.928 218.408 67.928C219.368 67.928 220.16 67.64 220.784 67.064L223.328 69.392C221.936 70.688 220.192 71.336 218.096 71.336C216.016 71.336 214.448 70.704 213.392 69.44C212.352 68.176 211.984 66.616 212.288 64.76C212.576 63 213.392 61.544 214.736 60.392C216.08 59.24 217.648 58.664 219.44 58.664ZM216.584 63.68H221.12C221.04 62.576 220.408 62.024 219.224 62.024C218.04 62.024 217.16 62.576 216.584 63.68ZM234.114 58.664C235.41 58.664 236.402 59.12 237.09 60.032C237.794 60.928 238.01 62.192 237.738 63.824L236.466 71H232.482L233.658 64.328C233.754 63.688 233.666 63.216 233.394 62.912C233.122 62.592 232.714 62.432 232.17 62.432C231.562 62.432 231.05 62.616 230.634 62.984C230.234 63.352 229.97 63.896 229.842 64.616V64.592L228.714 71H224.73L226.842 59H230.826L230.61 60.224C231.522 59.184 232.69 58.664 234.114 58.664ZM244.389 62.816L243.789 66.296C243.693 66.84 243.821 67.176 244.173 67.304C244.525 67.432 245.165 67.464 246.093 67.4L245.469 71C243.213 71.304 241.621 71.08 240.693 70.328C239.765 69.56 239.461 68.248 239.781 66.392L240.405 62.816H238.605L239.277 59H241.077L241.461 56.84L245.661 55.64L245.061 59H247.581L246.885 62.816H244.389ZM258.048 71.36C256.256 71.36 254.808 70.992 253.704 70.256C252.6 69.504 251.872 68.48 251.52 67.184L255.336 65.216C255.784 66.608 256.808 67.304 258.408 67.304C259.72 67.304 260.448 66.92 260.592 66.152C260.688 65.624 260.32 65.184 259.488 64.832C259.36 64.768 258.776 64.56 257.736 64.208C256.264 63.712 255.152 63.04 254.4 62.192C253.648 61.344 253.4 60.184 253.656 58.712C253.928 57.176 254.656 55.984 255.84 55.136C257.04 54.272 258.456 53.84 260.088 53.84C261.496 53.84 262.704 54.176 263.712 54.848C264.736 55.504 265.488 56.448 265.968 57.68L262.296 59.648C261.768 58.48 260.92 57.896 259.752 57.896C258.744 57.896 258.168 58.256 258.024 58.976C257.928 59.376 258.072 59.712 258.456 59.984C258.84 60.24 259.56 60.552 260.616 60.92C261.352 61.176 261.952 61.416 262.416 61.64C262.88 61.864 263.36 62.192 263.856 62.624C264.368 63.04 264.712 63.576 264.888 64.232C265.064 64.872 265.08 65.632 264.936 66.512C264.648 68.096 263.896 69.304 262.68 70.136C261.464 70.952 259.92 71.36 258.048 71.36ZM274.281 59H278.865L272.769 70.64C271.729 72.64 270.545 74.032 269.217 74.816C267.889 75.616 266.337 75.944 264.561 75.8L265.233 72.056C266.097 72.056 266.745 71.944 267.177 71.72C267.609 71.512 268.009 71.112 268.377 70.52L265.689 59H269.913L271.161 65.936L274.281 59ZM281.706 71.336C279.05 71.336 277.29 70.352 276.426 68.384L279.93 66.68C280.282 67.592 280.946 68.048 281.922 68.048C282.626 68.048 283.01 67.856 283.074 67.472C283.122 67.232 282.946 67.032 282.546 66.872C282.162 66.696 281.682 66.528 281.106 66.368C280.546 66.208 279.994 66 279.45 65.744C278.906 65.472 278.474 65.048 278.154 64.472C277.85 63.88 277.77 63.152 277.914 62.288C278.122 61.088 278.73 60.184 279.738 59.576C280.746 58.968 281.858 58.664 283.074 58.664C284.178 58.664 285.146 58.896 285.978 59.36C286.826 59.808 287.442 60.464 287.826 61.328L284.442 62.96C284.154 62.24 283.658 61.872 282.954 61.856C282.346 61.824 281.994 62.04 281.898 62.504C281.85 62.76 281.962 62.976 282.234 63.152C282.506 63.312 282.858 63.432 283.29 63.512C283.722 63.592 284.186 63.728 284.682 63.92C285.178 64.096 285.626 64.312 286.026 64.568C286.442 64.824 286.746 65.232 286.938 65.792C287.146 66.336 287.186 66.992 287.058 67.76C286.834 68.992 286.226 69.896 285.234 70.472C284.242 71.048 283.066 71.336 281.706 71.336ZM293.28 62.816L292.68 66.296C292.584 66.84 292.712 67.176 293.064 67.304C293.416 67.432 294.056 67.464 294.984 67.4L294.36 71C292.104 71.304 290.512 71.08 289.584 70.328C288.656 69.56 288.352 68.248 288.672 66.392L289.296 62.816H287.496L288.168 59H289.968L290.352 56.84L294.552 55.64L293.952 59H296.472L295.776 62.816H293.28ZM303.046 58.664C304.854 58.664 306.27 59.28 307.294 60.512C308.318 61.728 308.67 63.216 308.35 64.976C308.286 65.456 308.15 65.952 307.942 66.464H299.71C299.934 67.44 300.702 67.928 302.014 67.928C302.974 67.928 303.766 67.64 304.39 67.064L306.934 69.392C305.542 70.688 303.798 71.336 301.702 71.336C299.622 71.336 298.054 70.704 296.998 69.44C295.958 68.176 295.59 66.616 295.894 64.76C296.182 63 296.998 61.544 298.342 60.392C299.686 59.24 301.254 58.664 303.046 58.664ZM300.19 63.68H304.726C304.646 62.576 304.014 62.024 302.83 62.024C301.646 62.024 300.766 62.576 300.19 63.68ZM324.129 58.664C325.489 58.664 326.521 59.112 327.225 60.008C327.945 60.904 328.169 62.12 327.897 63.656L326.625 71H322.617L323.817 64.112C324.025 62.992 323.633 62.432 322.641 62.432C321.633 62.432 320.985 62.976 320.697 64.064L319.473 71H315.489L316.689 64.112C316.865 62.992 316.465 62.432 315.489 62.432C314.449 62.432 313.785 63.048 313.497 64.28L312.321 71H308.337L310.449 59H314.433L314.241 60.104C315.137 59.144 316.249 58.664 317.577 58.664C318.969 58.664 319.929 59.2 320.457 60.272C321.497 59.2 322.721 58.664 324.129 58.664Z" fill="black"/>
<defs>
<filter id="filter0_dd_4801_1671" x="0" y="0" width="357" height="126.5" filterUnits="userSpaceOnUse" color-interpolation-filters="sRGB">
<feFlood flood-opacity="0" result="BackgroundImageFix"/>
<feColorMatrix in="SourceAlpha" type="matrix" values="0 0 0 0 0 0 0 0 0 0 0 0 0 0 0 0 0 0 127 0" result="hardAlpha"/>
<feOffset dx="-4" dy="-4"/>
<feGaussianBlur stdDeviation="4"/>
<feComposite in2="hardAlpha" operator="out"/>
<feColorMatrix type="matrix" values="0 0 0 0 1 0 0 0 0 1 0 0 0 0 1 0 0 0 0.2 0"/>
<feBlend mode="normal" in2="BackgroundImageFix" result="effect1_dropShadow_4801_1671"/>
<feColorMatrix in="SourceAlpha" type="matrix" values="0 0 0 0 0 0 0 0 0 0 0 0 0 0 0 0 0 0 127 0" result="hardAlpha"/>
<feOffset dx="4" dy="4"/>
<feGaussianBlur stdDeviation="4"/>
<feComposite in2="hardAlpha" operator="out"/>
<feColorMatrix type="matrix" values="0 0 0 0 0 0 0 0 0 0 0 0 0 0 0 0 0 0 0.15 0"/>
<feBlend mode="normal" in2="effect1_dropShadow_4801_1671" result="effect2_dropShadow_4801_1671"/>
<feBlend mode="normal" in="SourceGraphic" in2="effect2_dropShadow_4801_1671" result="shape"/>
</filter>
</defs>
</svg>
