<svg width="137" height="46" viewBox="0 0 137 46" fill="none" xmlns="http://www.w3.org/2000/svg">
<path d="M10.5059 26.35H22.5559L21.0559 35H0.0558594L6.20586 -2.38419e-06H15.1559L10.5059 26.35ZM44.1852 35.7C41.3518 35.7 38.9518 35 36.9852 33.6C35.0518 32.1667 33.7352 30.4 33.0352 28.3C32.3352 26.2 32.2018 24 32.6352 21.7C33.3018 18.2333 34.9685 15.3 37.6352 12.9C40.3352 10.5 43.7018 9.3 47.7352 9.3C51.7352 9.3 54.7852 10.7333 56.8852 13.6C58.9852 16.4333 59.7185 19.6333 59.0852 23.2C58.4852 26.6 56.8185 29.5333 54.0852 32C51.3518 34.4667 48.0518 35.7 44.1852 35.7ZM44.8352 27.7C46.3018 27.7 47.5852 27.2167 48.6852 26.25C49.7852 25.2833 50.4685 24.0333 50.7352 22.5C51.0018 20.9667 50.7518 19.7167 49.9852 18.75C49.2518 17.7833 48.1518 17.3 46.6852 17.3C45.2518 17.3 43.9852 17.7833 42.8852 18.75C41.7852 19.7167 41.1018 20.9667 40.8352 22.5C40.5685 24.0333 40.8018 25.2833 41.5352 26.25C42.3018 27.2167 43.4018 27.7 44.8352 27.7ZM90.9855 10H99.1855L94.9355 34C94.2355 38.0333 92.5355 41 89.8355 42.9C87.1689 44.8 83.9522 45.75 80.1855 45.75C77.3855 45.75 74.9522 45.2333 72.8855 44.2C70.8189 43.1667 69.3522 41.65 68.4855 39.65L75.8355 35.8C76.7689 37.6 78.4689 38.5 80.9355 38.5C82.4689 38.5 83.7522 38.1167 84.7855 37.35C85.8189 36.6167 86.4689 35.5 86.7355 34L87.0855 32.1C85.1189 33.8333 82.7522 34.7 79.9855 34.7C77.4855 34.7 75.4022 34.0667 73.7355 32.8C72.0689 31.5 70.9355 29.8833 70.3355 27.95C69.7689 26.0167 69.6522 23.9167 69.9855 21.65C70.4855 18.3167 71.9355 15.4333 74.3355 13C76.7689 10.5333 79.8022 9.3 83.4355 9.3C86.6689 9.3 89.0189 10.5167 90.4855 12.95L90.9855 10ZM82.6355 27.15C84.1022 27.15 85.4022 26.7167 86.5355 25.85C87.6689 24.9833 88.4189 23.8667 88.7855 22.5L88.9355 21.5C89.0689 20.1333 88.7189 19.0167 87.8855 18.15C87.0855 17.2833 85.9522 16.85 84.4855 16.85C82.9189 16.85 81.5522 17.3333 80.3855 18.3C79.2522 19.2667 78.5522 20.5 78.2855 22C78.0189 23.5 78.2855 24.7333 79.0855 25.7C79.8855 26.6667 81.0689 27.15 82.6355 27.15ZM120.244 35.7C117.41 35.7 115.01 35 113.044 33.6C111.11 32.1667 109.794 30.4 109.094 28.3C108.394 26.2 108.26 24 108.694 21.7C109.36 18.2333 111.027 15.3 113.694 12.9C116.394 10.5 119.76 9.3 123.794 9.3C127.794 9.3 130.844 10.7333 132.944 13.6C135.044 16.4333 135.777 19.6333 135.144 23.2C134.544 26.6 132.877 29.5333 130.144 32C127.41 34.4667 124.11 35.7 120.244 35.7ZM120.894 27.7C122.36 27.7 123.644 27.2167 124.744 26.25C125.844 25.2833 126.527 24.0333 126.794 22.5C127.06 20.9667 126.81 19.7167 126.044 18.75C125.31 17.7833 124.21 17.3 122.744 17.3C121.31 17.3 120.044 17.7833 118.944 18.75C117.844 19.7167 117.16 20.9667 116.894 22.5C116.627 24.0333 116.86 25.2833 117.594 26.25C118.36 27.2167 119.46 27.7 120.894 27.7Z" fill="#06997E"/>
</svg>
