<svg width="18" height="16" viewBox="0 0 18 16" fill="none" xmlns="http://www.w3.org/2000/svg">
<path d="M6.75 6.85714C7.64511 6.85714 8.50355 6.49592 9.13649 5.85294C9.76942 5.20996 10.125 4.33789 10.125 3.42857C10.125 2.51926 9.76942 1.64719 9.13649 1.00421C8.50355 0.361224 7.64511 0 6.75 0C5.85489 0 4.99645 0.361224 4.36351 1.00421C3.73058 1.64719 3.375 2.51926 3.375 3.42857C3.375 4.33789 3.73058 5.20996 4.36351 5.85294C4.99645 6.49592 5.85489 6.85714 6.75 6.85714ZM6.75 9.14286C8.54021 9.14286 10.2571 9.8653 11.523 11.1513C12.7888 12.4372 13.5 14.1814 13.5 16H0C0 14.1814 0.711159 12.4372 1.97703 11.1513C3.2429 9.8653 4.95979 9.14286 6.75 9.14286ZM15.75 4.57143C15.75 4.26832 15.6315 3.97763 15.4205 3.76331C15.2095 3.54898 14.9234 3.42857 14.625 3.42857C14.3266 3.42857 14.0405 3.54898 13.8295 3.76331C13.6185 3.97763 13.5 4.26832 13.5 4.57143V5.71429H12.375C12.0766 5.71429 11.7905 5.83469 11.5795 6.04902C11.3685 6.26335 11.25 6.55404 11.25 6.85714C11.25 7.16025 11.3685 7.45094 11.5795 7.66527C11.7905 7.87959 12.0766 8 12.375 8H13.5V9.14286C13.5 9.44596 13.6185 9.73665 13.8295 9.95098C14.0405 10.1653 14.3266 10.2857 14.625 10.2857C14.9234 10.2857 15.2095 10.1653 15.4205 9.95098C15.6315 9.73665 15.75 9.44596 15.75 9.14286V8H16.875C17.1734 8 17.4595 7.87959 17.6705 7.66527C17.8815 7.45094 18 7.16025 18 6.85714C18 6.55404 17.8815 6.26335 17.6705 6.04902C17.4595 5.83469 17.1734 5.71429 16.875 5.71429H15.75V4.57143Z" fill="white"/>
</svg>
