<svg width="22" height="21" viewBox="0 0 22 21" fill="none" xmlns="http://www.w3.org/2000/svg">
<path d="M11.0302 3.64551C11.271 3.64551 11.5019 3.73502 11.6722 3.89434C11.8425 4.05367 11.9381 4.26976 11.9381 4.49507V9.59248H17.3858C17.6267 9.59248 17.8576 9.68198 18.0279 9.84131C18.1981 10.0006 18.2938 10.2167 18.2938 10.442C18.2938 10.6674 18.1981 10.8835 18.0279 11.0428C17.8576 11.2021 17.6267 11.2916 17.3858 11.2916H11.9381V16.389C11.9381 16.6143 11.8425 16.8304 11.6722 16.9897C11.5019 17.1491 11.271 17.2386 11.0302 17.2386C10.7894 17.2386 10.5585 17.1491 10.3882 16.9897C10.2179 16.8304 10.1222 16.6143 10.1222 16.389V11.2916H4.67455C4.43375 11.2916 4.20281 11.2021 4.03253 11.0428C3.86226 10.8835 3.7666 10.6674 3.7666 10.442C3.7666 10.2167 3.86226 10.0006 4.03253 9.84131C4.20281 9.68198 4.43375 9.59248 4.67455 9.59248H10.1222V4.49507C10.1222 4.26976 10.2179 4.05367 10.3882 3.89434C10.5585 3.73502 10.7894 3.64551 11.0302 3.64551Z" fill="white"/>
</svg>
