<svg width="20" height="20" viewBox="0 0 20 20" fill="none" xmlns="http://www.w3.org/2000/svg">
<rect width="20" height="20" rx="2" fill="black"/>
<path d="M14.8155 4.50296C14.6141 4.39067 14.3925 4.31926 14.1635 4.29281C13.9345 4.26636 13.7025 4.2854 13.4809 4.34884C13.2592 4.41227 13.0522 4.51886 12.8717 4.6625C12.6912 4.80615 12.5407 4.98403 12.4288 5.18598L9.17085 11.0597L7.30626 9.19175C7.14437 9.02384 6.95073 8.8899 6.73662 8.79777C6.52252 8.70563 6.29224 8.65713 6.05922 8.6551C5.82621 8.65307 5.59512 8.69755 5.37945 8.78595C5.16378 8.87435 4.96784 9.00489 4.80306 9.16996C4.63829 9.33503 4.50798 9.53132 4.41974 9.74739C4.33151 9.96345 4.2871 10.195 4.28913 10.4284C4.29115 10.6618 4.33957 10.8925 4.43154 11.107C4.52351 11.3215 4.6572 11.5155 4.82482 11.6777L8.33464 15.1938C8.66632 15.527 9.11382 15.7098 9.57536 15.7098L9.81842 15.6922C10.0874 15.6545 10.344 15.5548 10.568 15.4009C10.7919 15.247 10.9772 15.0431 11.1092 14.8053L15.4964 6.89395C15.6084 6.69217 15.6797 6.47026 15.7061 6.24089C15.7325 6.01153 15.7135 5.7792 15.6503 5.55717C15.5871 5.33515 15.4808 5.12777 15.3376 4.94689C15.1943 4.76601 15.017 4.61516 14.8155 4.50296Z" fill="white"/>
</svg>
