<svg width="25" height="24" viewBox="0 0 25 24" fill="none" xmlns="http://www.w3.org/2000/svg">
<path fill-rule="evenodd" clip-rule="evenodd" d="M2.92501 3.87868C2.04633 4.75736 2.04633 6.17157 2.04633 9V15C2.04633 17.8284 2.04633 19.2426 2.92501 20.1213C3.80368 21 5.2179 21 8.04633 21H16.5096C19.3381 21 20.7523 21 21.631 20.1213C22.5096 19.2426 22.5096 17.8284 22.5096 15V9C22.5096 6.17157 22.5096 4.75736 21.631 3.87868C20.7523 3 19.3381 3 16.5096 3H8.04633C5.2179 3 3.80368 3 2.92501 3.87868ZM16.3706 8C16.9229 8 17.3706 8.44772 17.3706 9V17C17.3706 17.5523 16.9229 18 16.3706 18C15.8184 18 15.3706 17.5523 15.3706 17V9C15.3706 8.44772 15.8184 8 16.3706 8ZM9.18532 11C9.18532 10.4477 8.73761 10 8.18532 10C7.63304 10 7.18532 10.4477 7.18532 11V17C7.18532 17.5523 7.63304 18 8.18532 18C8.73761 18 9.18532 17.5523 9.18532 17V11ZM13.278 13C13.278 12.4477 12.8303 12 12.278 12C11.7257 12 11.278 12.4477 11.278 13V17C11.278 17.5523 11.7257 18 12.278 18C12.8303 18 13.278 17.5523 13.278 17V13Z" fill="#333333"/>
</svg>
