<svg width="15" height="9" viewBox="0 0 15 9" fill="none" xmlns="http://www.w3.org/2000/svg">
<path d="M8.47955 0.322938C8.65305 0.137629 8.88393 0.0351821 9.12348 0.0372156C9.36303 0.039249 9.5925 0.145604 9.76348 0.333837C9.93446 0.522071 10.0336 0.777461 10.0399 1.04612C10.0462 1.31477 9.95929 1.57568 9.79742 1.77379L4.88313 8.66878C4.79863 8.77089 4.69664 8.85284 4.58327 8.90972C4.46989 8.9666 4.34745 8.99724 4.22328 8.99982C4.0991 9.0024 3.97574 8.97686 3.86056 8.92473C3.74539 8.8726 3.64076 8.79495 3.55295 8.69642L0.294005 5.04028C0.203249 4.9454 0.130455 4.83099 0.0799676 4.70387C0.0294799 4.57675 0.00233214 4.43952 0.00014376 4.30037C-0.00204462 4.16123 0.0207713 4.02301 0.0672303 3.89397C0.113689 3.76493 0.18284 3.64771 0.270556 3.5493C0.358273 3.45089 0.462759 3.37332 0.57778 3.32119C0.692802 3.26907 0.816002 3.24348 0.940033 3.24593C1.06406 3.24839 1.18638 3.27884 1.29969 3.33548C1.41301 3.39212 1.51499 3.47379 1.59955 3.57561L4.17863 6.46764L8.45492 0.353338C8.46259 0.34267 8.47081 0.332519 8.47955 0.322938ZM7.34643 7.4252L8.47955 8.69642C8.56735 8.79473 8.67189 8.8722 8.78695 8.92421C8.90201 8.97621 9.02523 9.00168 9.14925 8.99911C9.27328 8.99653 9.39557 8.96595 9.50884 8.9092C9.6221 8.85245 9.72401 8.77068 9.8085 8.66878L14.7252 1.77379C14.8136 1.67596 14.8834 1.55917 14.9306 1.43039C14.9778 1.3016 15.0014 1.16347 14.9999 1.02424C14.9985 0.885006 14.972 0.747528 14.9222 0.620015C14.8723 0.492502 14.8001 0.377569 14.7097 0.282079C14.6194 0.186589 14.5129 0.112501 14.3964 0.0642394C14.28 0.0159777 14.1561 -0.00546815 14.0321 0.00118298C13.9082 0.00783411 13.7867 0.0424461 13.6749 0.102951C13.5631 0.163456 13.4633 0.248613 13.3815 0.353338L9.104 6.46764L8.50665 5.7961L7.3452 7.4252H7.34643Z" fill="#686E74" fill-opacity="0.75"/>
</svg>
