<svg width="25" height="15" viewBox="0 0 25 15" fill="none" xmlns="http://www.w3.org/2000/svg">
<path d="M14.1326 0.538231C14.4218 0.229381 14.8066 0.0586369 15.2058 0.0620259C15.605 0.065415 15.9875 0.242673 16.2725 0.556396C16.5574 0.870119 16.7226 1.29577 16.7332 1.74353C16.7437 2.19129 16.5988 2.62614 16.329 2.95632L8.13855 14.448C7.99772 14.6182 7.82774 14.7547 7.63878 14.8495C7.44981 14.9443 7.24575 14.9954 7.0388 14.9997C6.83184 15.004 6.62623 14.9614 6.43427 14.8746C6.24231 14.7877 6.06794 14.6582 5.92158 14.494L0.490008 8.40046C0.338748 8.24233 0.217426 8.05165 0.133279 7.83978C0.0491331 7.62791 0.00388689 7.3992 0.000239599 7.16729C-0.00340769 6.93538 0.0346188 6.70502 0.112051 6.48995C0.189482 6.27488 0.304733 6.07951 0.450927 5.9155C0.597122 5.75149 0.771264 5.62219 0.962967 5.53532C1.15467 5.44845 1.36 5.40579 1.56672 5.40988C1.77344 5.41398 1.97731 5.46474 2.16616 5.55914C2.35501 5.65354 2.52498 5.78965 2.66592 5.95935L6.96438 10.7794L14.0915 0.588896C14.1043 0.571116 14.118 0.554198 14.1326 0.538231V0.538231ZM12.2441 12.3753L14.1326 14.494C14.2789 14.6579 14.4532 14.787 14.6449 14.8737C14.8367 14.9604 15.042 15.0028 15.2488 14.9985C15.4555 14.9942 15.6593 14.9432 15.8481 14.8487C16.0368 14.7541 16.2067 14.6178 16.3475 14.448L24.5421 2.95632C24.6893 2.79327 24.8057 2.59862 24.8843 2.38398C24.963 2.16934 25.0023 1.93912 24.9999 1.70707C24.9975 1.47501 24.9534 1.24588 24.8703 1.03336C24.7872 0.820836 24.6668 0.629281 24.5162 0.470131C24.3657 0.310982 24.1881 0.187502 23.9941 0.107066C23.8 0.0266295 23.5935 -0.00911359 23.3869 0.00197163C23.1803 0.0130568 22.9778 0.0707435 22.7915 0.171585C22.6051 0.272426 22.4389 0.414355 22.3025 0.588896L15.1733 10.7794L14.1777 9.66017L12.242 12.3753H12.2441Z" fill="#367BF5"/>
</svg>
