<svg width="13" height="13" viewBox="0 0 13 13" fill="none" xmlns="http://www.w3.org/2000/svg">
<path d="M7.47624 6.13709L8.49406 5.18558C8.66518 5.0307 8.89447 4.94492 9.13253 4.94669C9.3706 4.94847 9.59839 5.03767 9.76685 5.19508C9.93532 5.35248 10.031 5.5655 10.0332 5.78826C10.0354 6.01101 9.94408 6.22568 9.7788 6.38601L7.21022 8.78944C7.12609 8.86861 7.02607 8.93143 6.91591 8.9743C6.80574 9.01717 6.68761 9.03924 6.56829 9.03924C6.44898 9.03924 6.33085 9.01717 6.22068 8.9743C6.11052 8.93143 6.0105 8.86861 5.92637 8.78944L3.35778 6.38601C3.27349 6.30703 3.20664 6.21327 3.16106 6.11011C3.11549 6.00695 3.09207 5.8964 3.09216 5.78477C3.09224 5.67314 3.11582 5.56262 3.16156 5.45952C3.20729 5.35642 3.27427 5.26276 3.35869 5.18388C3.44311 5.105 3.5433 5.04245 3.65356 4.99981C3.76381 4.95716 3.88195 4.93525 4.00125 4.93533C4.12055 4.93541 4.23867 4.95748 4.34886 5.00027C4.45904 5.04306 4.55914 5.10574 4.64344 5.18473L5.66035 6.13709V1.34468C5.66035 1.11937 5.756 0.903274 5.92628 0.74395C6.09655 0.584625 6.32749 0.495117 6.56829 0.495117C6.8091 0.495117 7.04004 0.584625 7.21031 0.74395C7.38059 0.903274 7.47624 1.11937 7.47624 1.34468V6.13709ZM1.1206 10.6899H12.016C12.2568 10.6899 12.4877 10.7794 12.658 10.9388C12.8283 11.0981 12.9239 11.3142 12.9239 11.5395C12.9239 11.7648 12.8283 11.9809 12.658 12.1402C12.4877 12.2995 12.2568 12.3891 12.016 12.3891H1.1206C0.879793 12.3891 0.648852 12.2995 0.478579 12.1402C0.308305 11.9809 0.212646 11.7648 0.212646 11.5395C0.212646 11.3142 0.308305 11.0981 0.478579 10.9388C0.648852 10.7794 0.879793 10.6899 1.1206 10.6899Z" fill="#FEF9F9"/>
</svg>
