<svg width="18" height="16" viewBox="0 0 18 16" fill="none" xmlns="http://www.w3.org/2000/svg">
<g clip-path="url(#clip0_3127_743)">
<path d="M12.5813 2.5998L15.4 5.41855C15.5187 5.5373 15.5187 5.73105 15.4 5.8498L8.575 12.6748L5.675 12.9967C5.2875 13.0404 4.95938 12.7123 5.00313 12.3248L5.325 9.4248L12.15 2.5998C12.2687 2.48105 12.4625 2.48105 12.5813 2.5998ZM17.6437 1.88418L16.1187 0.35918C15.6437 -0.11582 14.8719 -0.11582 14.3938 0.35918L13.2875 1.46543C13.1688 1.58418 13.1688 1.77793 13.2875 1.89668L16.1063 4.71543C16.225 4.83418 16.4188 4.83418 16.5375 4.71543L17.6437 3.60918C18.1187 3.13105 18.1187 2.35918 17.6437 1.88418ZM12 10.8186V13.9998H2V3.9998H9.18125C9.28125 3.9998 9.375 3.95918 9.44687 3.89043L10.6969 2.64043C10.9344 2.40293 10.7656 1.9998 10.4312 1.9998H1.5C0.671875 1.9998 0 2.67168 0 3.4998V14.4998C0 15.3279 0.671875 15.9998 1.5 15.9998H12.5C13.3281 15.9998 14 15.3279 14 14.4998V9.56855C14 9.23418 13.5969 9.06855 13.3594 9.30293L12.1094 10.5529C12.0406 10.6248 12 10.7186 12 10.8186Z" fill="white"/>
</g>
<defs>
<clipPath id="clip0_3127_743">
<rect width="18" height="16" fill="white"/>
</clipPath>
</defs>
</svg>
