<svg width="18" height="18" viewBox="0 0 18 18" fill="none" xmlns="http://www.w3.org/2000/svg">
<path d="M12.3555 4.05587L13.944 5.64362M13.377 2.65712L9.08175 6.95237C8.85982 7.17399 8.70846 7.45636 8.64675 7.76387L8.25 9.74987L10.236 9.35237C10.5435 9.29087 10.8255 9.14012 11.0475 8.91812L15.3428 4.62287C15.4718 4.4938 15.5742 4.34057 15.6441 4.17192C15.7139 4.00328 15.7499 3.82253 15.7499 3.64C15.7499 3.45746 15.7139 3.27671 15.6441 3.10807C15.5742 2.93942 15.4718 2.78619 15.3428 2.65712C15.2137 2.52805 15.0604 2.42566 14.8918 2.35581C14.7232 2.28595 14.5424 2.25 14.3599 2.25C14.1773 2.25 13.9966 2.28595 13.8279 2.35581C13.6593 2.42566 13.5061 2.52805 13.377 2.65712V2.65712Z" stroke="#334D6E" stroke-width="2" stroke-linecap="round" stroke-linejoin="round"/>
<path d="M14.25 11.25V13.5C14.25 13.8978 14.092 14.2794 13.8107 14.5607C13.5294 14.842 13.1478 15 12.75 15H4.5C4.10218 15 3.72064 14.842 3.43934 14.5607C3.15804 14.2794 3 13.8978 3 13.5V5.25C3 4.85218 3.15804 4.47064 3.43934 4.18934C3.72064 3.90804 4.10218 3.75 4.5 3.75H6.75" stroke="#334D6E" stroke-width="2" stroke-linecap="round" stroke-linejoin="round"/>
</svg>
