<svg width="25" height="24" viewBox="0 0 25 24" fill="none" xmlns="http://www.w3.org/2000/svg">
<path d="M21.7261 9.75006C21.9333 9.75006 22.132 9.67104 22.2785 9.53039C22.425 9.38974 22.5073 9.19897 22.5073 9.00006C22.5073 8.80115 22.425 8.61038 22.2785 8.46973C22.132 8.32908 21.9333 8.25006 21.7261 8.25006H17.5115L23.4698 2.53006C23.6121 2.38854 23.6907 2.19906 23.6888 2.00241C23.687 1.80576 23.6047 1.61769 23.4598 1.4787C23.3149 1.33971 23.1189 1.26092 22.914 1.2593C22.7092 1.25769 22.5119 1.33337 22.3646 1.47006L16.4063 7.19006V3.14206C16.4063 2.94315 16.324 2.75238 16.1774 2.61173C16.0309 2.47108 15.8322 2.39206 15.625 2.39206C15.4178 2.39206 15.2191 2.47108 15.0726 2.61173C14.9261 2.75238 14.8438 2.94315 14.8438 3.14206V9.00006C14.8438 9.41406 15.1938 9.75006 15.625 9.75006H21.7261ZM3.27398 14.2501C3.06678 14.2501 2.86807 14.3291 2.72155 14.4697C2.57504 14.6104 2.49273 14.8011 2.49273 15.0001C2.49273 15.199 2.57504 15.3897 2.72155 15.5304C2.86807 15.671 3.06678 15.7501 3.27398 15.7501H7.48856L1.53023 21.4701C1.45565 21.5393 1.39617 21.6221 1.35527 21.7136C1.31437 21.8051 1.29287 21.9035 1.29202 22.0031C1.29117 22.1027 1.31098 22.2015 1.35031 22.2936C1.38964 22.3858 1.44769 22.4695 1.52108 22.5399C1.59446 22.6102 1.68172 22.6659 1.77775 22.7036C1.87378 22.7412 1.97666 22.7602 2.0804 22.7592C2.18413 22.7583 2.28663 22.7376 2.38193 22.6982C2.47723 22.6589 2.56341 22.6017 2.63544 22.5301L8.59377 16.8101V20.8571C8.59377 21.056 8.67608 21.2467 8.8226 21.3874C8.96911 21.528 9.16782 21.6071 9.37502 21.6071C9.58222 21.6071 9.78094 21.528 9.92745 21.3874C10.074 21.2467 10.1563 21.056 10.1563 20.8571V15.0001C10.1563 14.8011 10.074 14.6104 9.92745 14.4697C9.78094 14.3291 9.58222 14.2501 9.37502 14.2501H3.27398Z" fill="white"/>
</svg>
