<svg width="19" height="19" viewBox="0 0 19 19" fill="none" xmlns="http://www.w3.org/2000/svg">
<path d="M13.6396 1H2.30754C1.96076 1 1.62818 1.13776 1.38297 1.38297C1.13776 1.62818 1 1.96076 1 2.30754V13.6396C1 13.9863 1.13776 14.3189 1.38297 14.5641C1.62818 14.8093 1.96076 14.9471 2.30754 14.9471H13.6396C13.9863 14.9471 14.3189 14.8093 14.5641 14.5641C14.8093 14.3189 14.9471 13.9863 14.9471 13.6396V2.30754C14.9471 1.96076 14.8093 1.62818 14.5641 1.38297C14.3189 1.13776 13.9863 1 13.6396 1Z" stroke="black" stroke-width="1.5" stroke-linejoin="round"/>
<path d="M17.9984 4.48853V17.1272C17.9984 17.3584 17.9065 17.5801 17.7431 17.7436C17.5796 17.9071 17.3579 17.9989 17.1267 17.9989H4.48843M4.48712 7.7504L7.1022 10.1585L11.4607 5.67272" stroke="black" stroke-width="1.5" stroke-linecap="round" stroke-linejoin="round"/>
</svg>
