<svg width="16" height="16" viewBox="0 0 16 16" fill="none" xmlns="http://www.w3.org/2000/svg">
<path d="M14.6667 0H1.33333C0.979711 0 0.640573 0.140476 0.390524 0.390524C0.140476 0.640573 0 0.979711 0 1.33333V14.6667C0 15.0203 0.140476 15.3594 0.390524 15.6095C0.640573 15.8595 0.979711 16 1.33333 16H14.6667C15.0203 16 15.3594 15.8595 15.6095 15.6095C15.8595 15.3594 16 15.0203 16 14.6667V1.33333C16 0.979711 15.8595 0.640573 15.6095 0.390524C15.3594 0.140476 15.0203 0 14.6667 0ZM8 2.66667C8.19778 2.66667 8.39112 2.72532 8.55557 2.8352C8.72002 2.94508 8.84819 3.10126 8.92388 3.28398C8.99957 3.46671 9.01937 3.66778 8.98079 3.86176C8.9422 4.05574 8.84696 4.23392 8.70711 4.37377C8.56725 4.51363 8.38907 4.60887 8.19509 4.64745C8.00111 4.68604 7.80004 4.66623 7.61732 4.59055C7.43459 4.51486 7.27841 4.38669 7.16853 4.22224C7.05865 4.05779 7 3.86445 7 3.66667C7 3.40145 7.10536 3.1471 7.29289 2.95956C7.48043 2.77202 7.73478 2.66667 8 2.66667ZM10.6667 13.4167H5.33333V11.9167H7.25V8.08333H6V6.58333H8.75V11.9167H10.6667V13.4167Z" fill="black"/>
</svg>
