<svg width="20" height="17" viewBox="0 0 20 17" fill="none" xmlns="http://www.w3.org/2000/svg">
<path d="M14.9772 14.96C14.9772 14.7758 14.9068 14.6165 14.7661 14.4819C14.6254 14.3473 14.4588 14.28 14.2662 14.28C14.0736 14.28 13.907 14.3473 13.7663 14.4819C13.6255 14.6165 13.5552 14.7758 13.5552 14.96C13.5552 15.1442 13.6255 15.3035 13.7663 15.4381C13.907 15.5727 14.0736 15.64 14.2662 15.64C14.4588 15.64 14.6254 15.5727 14.7661 15.4381C14.9068 15.3035 14.9772 15.1442 14.9772 14.96ZM17.8213 14.96C17.8213 14.7758 17.7509 14.6165 17.6102 14.4819C17.4695 14.3473 17.3028 14.28 17.1103 14.28C16.9177 14.28 16.7511 14.3473 16.6103 14.4819C16.4696 14.6165 16.3992 14.7758 16.3992 14.96C16.3992 15.1442 16.4696 15.3035 16.6103 15.4381C16.7511 15.5727 16.9177 15.64 17.1103 15.64C17.3028 15.64 17.4695 15.5727 17.6102 15.4381C17.7509 15.3035 17.8213 15.1442 17.8213 14.96ZM19.2433 12.58V15.98C19.2433 16.2633 19.1396 16.5042 18.9323 16.7025C18.7249 16.9008 18.4731 17 18.1768 17H1.82336C1.52711 17 1.27529 16.9008 1.06791 16.7025C0.860526 16.5042 0.756836 16.2633 0.756836 15.98V12.58C0.756836 12.2967 0.860526 12.0558 1.06791 11.8575C1.27529 11.6592 1.52711 11.56 1.82336 11.56H6.56719C6.72273 11.9567 6.9838 12.2825 7.35042 12.5375C7.71704 12.7925 8.12625 12.92 8.57804 12.92H11.4221C11.8739 12.92 12.2831 12.7925 12.6497 12.5375C13.0164 12.2825 13.2774 11.9567 13.433 11.56H18.1768C18.4731 11.56 18.7249 11.6592 18.9323 11.8575C19.1396 12.0558 19.2433 12.2967 19.2433 12.58ZM15.6327 5.695C15.5068 5.97833 15.2883 6.12 14.9772 6.12H12.1331V10.88C12.1331 11.0642 12.0628 11.2235 11.9221 11.3581C11.7813 11.4927 11.6147 11.56 11.4221 11.56H8.57804C8.38547 11.56 8.21883 11.4927 8.07811 11.3581C7.93738 11.2235 7.86702 11.0642 7.86702 10.88V6.12H5.02295C4.71188 6.12 4.49339 5.97833 4.36748 5.695C4.24157 5.41875 4.29341 5.17438 4.52301 4.96187L9.50014 0.201875C9.63346 0.0672917 9.80011 0 10.0001 0C10.2001 0 10.3667 0.0672917 10.5 0.201875L15.4771 4.96187C15.7067 5.17438 15.7586 5.41875 15.6327 5.695Z" fill="white"/>
</svg>
