<svg width="18" height="17" viewBox="0 0 18 17" fill="none" xmlns="http://www.w3.org/2000/svg">
<path d="M13.8462 14.875C13.8462 14.6832 13.7776 14.5171 13.6406 14.377C13.5036 14.2368 13.3413 14.1667 13.1538 14.1667C12.9663 14.1667 12.8041 14.2368 12.6671 14.377C12.53 14.5171 12.4615 14.6832 12.4615 14.875C12.4615 15.0668 12.53 15.2329 12.6671 15.373C12.8041 15.5132 12.9663 15.5833 13.1538 15.5833C13.3413 15.5833 13.5036 15.5132 13.6406 15.373C13.7776 15.2329 13.8462 15.0668 13.8462 14.875ZM16.6154 14.875C16.6154 14.6832 16.5469 14.5171 16.4099 14.377C16.2728 14.2368 16.1106 14.1667 15.9231 14.1667C15.7356 14.1667 15.5733 14.2368 15.4363 14.377C15.2993 14.5171 15.2308 14.6832 15.2308 14.875C15.2308 15.0668 15.2993 15.2329 15.4363 15.373C15.5733 15.5132 15.7356 15.5833 15.9231 15.5833C16.1106 15.5833 16.2728 15.5132 16.4099 15.373C16.5469 15.2329 16.6154 15.0668 16.6154 14.875ZM18 12.3958V15.9375C18 16.2326 17.899 16.4835 17.6971 16.6901C17.4952 16.8967 17.25 17 16.9615 17H1.03846C0.75 17 0.504808 16.8967 0.302885 16.6901C0.100962 16.4835 0 16.2326 0 15.9375V12.3958C0 12.1007 0.100962 11.8498 0.302885 11.6432C0.504808 11.4366 0.75 11.3333 1.03846 11.3333H6.06851L7.52885 12.8385C7.94712 13.2517 8.4375 13.4583 9 13.4583C9.5625 13.4583 10.0529 13.2517 10.4712 12.8385L11.9423 11.3333H16.9615C17.25 11.3333 17.4952 11.4366 17.6971 11.6432C17.899 11.8498 18 12.1007 18 12.3958ZM14.4844 6.09831C14.607 6.40082 14.5565 6.65907 14.3329 6.87305L9.48678 11.8314C9.35697 11.9716 9.19471 12.0417 9 12.0417C8.80529 12.0417 8.64303 11.9716 8.51322 11.8314L3.66707 6.87305C3.44351 6.65907 3.39303 6.40082 3.51562 6.09831C3.63822 5.81055 3.85096 5.66667 4.15385 5.66667H6.92308V0.708333C6.92308 0.516493 6.99159 0.350477 7.12861 0.210286C7.26563 0.0700955 7.42789 0 7.61539 0H10.3846C10.5721 0 10.7344 0.0700955 10.8714 0.210286C11.0084 0.350477 11.0769 0.516493 11.0769 0.708333V5.66667H13.8462C14.149 5.66667 14.3618 5.81055 14.4844 6.09831Z" fill="white"/>
</svg>
