<svg width="23" height="21" viewBox="0 0 23 21" fill="none" xmlns="http://www.w3.org/2000/svg">
<path d="M6.35878 14.7676C3.89424 12.2882 3.93782 8.40195 6.49824 5.98884C7.50171 5.03899 8.8065 4.41818 10.2179 4.21902L10.1427 2.10156C8.16134 2.32542 6.31922 3.17018 4.91623 4.49836C1.48527 7.73011 1.44386 12.9488 4.78221 16.254L2.88533 18.0401L8.88869 18.347L8.87235 12.3993L6.35878 14.7676ZM13.6009 2.57562L13.6173 8.52327L16.1309 6.15604C18.5954 8.63745 18.5518 12.5237 15.9914 14.9348C14.9881 15.8849 13.6832 16.5057 12.2717 16.7046L12.3469 18.821C14.3283 18.5969 16.1706 17.7526 17.5745 16.4253C21.0044 13.1915 21.0458 7.97275 17.7074 4.66963L19.6043 2.88147L13.6009 2.57562Z" fill="white"/>
</svg>
