<svg width="16" height="16" viewBox="0 0 16 16" fill="none" xmlns="http://www.w3.org/2000/svg">
<path fill-rule="evenodd" clip-rule="evenodd" d="M8 16C10.1217 16 12.1566 15.1571 13.6569 13.6569C15.1571 12.1566 16 10.1217 16 8C16 5.87827 15.1571 3.84344 13.6569 2.34315C12.1566 0.842855 10.1217 0 8 0C5.87827 0 3.84344 0.842855 2.34315 2.34315C0.842855 3.84344 0 5.87827 0 8C0 10.1217 0.842855 12.1566 2.34315 13.6569C3.84344 15.1571 5.87827 16 8 16ZM5 3C4.73478 3 4.48043 3.10536 4.29289 3.29289C4.10536 3.48043 4 3.73478 4 4C4 4.26522 4.10536 4.51957 4.29289 4.70711C4.48043 4.89464 4.73478 5 5 5H6C6.35106 5.00001 6.69594 5.09243 6.99997 5.26796C7.304 5.4435 7.55647 5.69597 7.732 6H5C4.73478 6 4.48043 6.10536 4.29289 6.29289C4.10536 6.48043 4 6.73478 4 7C4 7.26522 4.10536 7.51957 4.29289 7.70711C4.48043 7.89464 4.73478 8 5 8H7.732C7.55647 8.30403 7.304 8.5565 6.99997 8.73204C6.69594 8.90757 6.35106 8.99999 6 9H5C4.80225 9.00004 4.60895 9.05871 4.44454 9.1686C4.28013 9.27848 4.15199 9.43465 4.07632 9.61735C4.00065 9.80005 3.98085 10.0011 4.01942 10.195C4.05798 10.389 4.15319 10.5671 4.293 10.707L7.293 13.707C7.4816 13.8892 7.7342 13.99 7.9964 13.9877C8.2586 13.9854 8.50941 13.8802 8.69482 13.6948C8.88023 13.5094 8.9854 13.2586 8.98767 12.9964C8.98995 12.7342 8.88916 12.4816 8.707 12.293L7.224 10.809C7.86654 10.6019 8.44634 10.2358 8.90961 9.7447C9.37288 9.25364 9.70461 8.65351 9.874 8H11C11.2652 8 11.5196 7.89464 11.7071 7.70711C11.8946 7.51957 12 7.26522 12 7C12 6.73478 11.8946 6.48043 11.7071 6.29289C11.5196 6.10536 11.2652 6 11 6H9.874C9.78349 5.64956 9.64555 5.31312 9.464 5H11C11.2652 5 11.5196 4.89464 11.7071 4.70711C11.8946 4.51957 12 4.26522 12 4C12 3.73478 11.8946 3.48043 11.7071 3.29289C11.5196 3.10536 11.2652 3 11 3H5Z" fill="#334D6E"/>
</svg>
