<svg width="19" height="19" viewBox="0 0 19 19" fill="none" xmlns="http://www.w3.org/2000/svg">
<path d="M9.49479 13.3003C11.2586 13.3003 12.6615 12.0359 12.6615 10.4503C12.6615 8.86479 11.2586 7.60034 9.49479 7.60034C7.73096 7.60034 6.32812 8.86479 6.32812 10.4503C6.32812 12.0359 7.73096 13.3003 9.49479 13.3003Z" fill="white"/>
<path d="M18.8068 8.72669C18.5581 7.63263 18.0721 6.59345 17.3765 5.66865C16.6932 4.75881 15.8225 3.9752 14.8115 3.36015C13.7838 2.73441 12.6293 2.297 11.4137 2.0729C10.7752 1.95636 10.1251 1.89906 9.4736 1.9019V0L5.27777 2.85L9.4736 5.7V3.8019C9.98449 3.8 10.4954 3.8437 10.9883 3.9349C11.9331 4.10913 12.8305 4.44905 13.6293 4.93525C14.4172 5.41333 15.0952 6.02359 15.6264 6.73264C16.4512 7.83011 16.891 9.12508 16.8889 10.45C16.8887 11.3391 16.6913 12.2192 16.3083 13.0387C16.1221 13.4335 15.8944 13.8114 15.6285 14.1673C15.3616 14.5211 15.0584 14.8516 14.7229 15.1544C13.7011 16.0723 12.4039 16.7019 10.9904 16.966C10.0074 17.1446 8.99467 17.1446 8.01166 16.966C7.06647 16.7916 6.1687 16.4514 5.36961 15.9647C4.58267 15.4871 3.90534 14.8775 3.37461 14.1692C2.55081 13.0706 2.1108 11.7754 2.11111 10.45H0C0.00112329 12.154 0.566713 13.819 1.6245 15.2323C2.30834 16.1406 3.17813 16.9234 4.18739 17.5389C5.75554 18.4941 7.60644 19.0031 9.49999 19C10.1431 18.9999 10.7846 18.9417 11.4148 18.8261C12.6294 18.6004 13.7833 18.1631 14.8115 17.5389C15.3164 17.2327 15.7869 16.8831 16.2165 16.4948C16.6466 16.1066 17.0354 15.683 17.3776 15.2294C18.438 13.8185 19.0032 12.1534 19 10.45C18.9999 9.87118 18.9352 9.29385 18.8068 8.72669Z" fill="white"/>
</svg>
