<svg width="17" height="17" viewBox="0 0 17 17" fill="none" xmlns="http://www.w3.org/2000/svg">
<path d="M13.0769 14.1289C13.0769 13.955 13.0122 13.8044 12.8828 13.6773C12.7534 13.5502 12.6002 13.4867 12.4231 13.4867C12.246 13.4867 12.0927 13.5502 11.9633 13.6773C11.8339 13.8044 11.7692 13.955 11.7692 14.1289C11.7692 14.3028 11.8339 14.4533 11.9633 14.5805C12.0927 14.7076 12.246 14.7711 12.4231 14.7711C12.6002 14.7711 12.7534 14.7076 12.8828 14.5805C13.0122 14.4533 13.0769 14.3028 13.0769 14.1289ZM15.6923 14.1289C15.6923 13.955 15.6276 13.8044 15.4982 13.6773C15.3688 13.5502 15.2155 13.4867 15.0385 13.4867C14.8614 13.4867 14.7081 13.5502 14.5787 13.6773C14.4493 13.8044 14.3846 13.955 14.3846 14.1289C14.3846 14.3028 14.4493 14.4533 14.5787 14.5805C14.7081 14.7076 14.8614 14.7711 15.0385 14.7711C15.2155 14.7711 15.3688 14.7076 15.4982 14.5805C15.6276 14.4533 15.6923 14.3028 15.6923 14.1289ZM17 11.8811V15.0922C17 15.3598 16.9046 15.5873 16.7139 15.7746C16.5232 15.9619 16.2917 16.0556 16.0192 16.0556H0.980769C0.708333 16.0556 0.476763 15.9619 0.286058 15.7746C0.0953526 15.5873 0 15.3598 0 15.0922V11.8811C0 11.6135 0.0953526 11.3861 0.286058 11.1988C0.476763 11.0114 0.708333 10.9178 0.980769 10.9178H5.34315C5.48618 11.2924 5.72626 11.6001 6.0634 11.841C6.40054 12.0818 6.77684 12.2022 7.19231 12.2022H9.80769C10.2232 12.2022 10.5995 12.0818 10.9366 11.841C11.2737 11.6001 11.5138 11.2924 11.6569 10.9178H16.0192C16.2917 10.9178 16.5232 11.0114 16.7139 11.1988C16.9046 11.3861 17 11.6135 17 11.8811ZM13.6797 5.37861C13.5639 5.6462 13.363 5.78 13.0769 5.78H10.4615V10.2756C10.4615 10.4495 10.3968 10.6 10.2674 10.7271C10.138 10.8542 9.98478 10.9178 9.80769 10.9178H7.19231C7.01522 10.9178 6.86198 10.8542 6.73257 10.7271C6.60317 10.6 6.53846 10.4495 6.53846 10.2756V5.78H3.92308C3.63702 5.78 3.4361 5.6462 3.32031 5.37861C3.20453 5.11771 3.2522 4.88691 3.46334 4.68622L8.04026 0.19066C8.16286 0.0635532 8.31611 0 8.5 0C8.68389 0 8.83714 0.0635532 8.95974 0.19066L13.5367 4.68622C13.7478 4.88691 13.7955 5.11771 13.6797 5.37861Z" fill="white"/>
</svg>
