<svg width="67" height="67" viewBox="0 0 67 67" fill="none" xmlns="http://www.w3.org/2000/svg">
<g filter="url(#filter0_ddii_3247_829)">
<rect x="12" y="12" width="43" height="43" rx="21.5" fill="black"/>
</g>
<path d="M28.2857 26.5577V27.6538H27.5714C26.6242 27.6538 25.7158 28.0388 25.046 28.724C24.3763 29.4093 24 30.3386 24 31.3077V36.7885C24 37.4668 24.2634 38.1174 24.7322 38.597C25.2011 39.0767 25.837 39.3462 26.5 39.3462H27.5714V40.4423C27.5714 41.1206 27.8348 41.7712 28.3037 42.2509C28.7725 42.7305 29.4084 43 30.0714 43H37.9286C38.5916 43 39.2275 42.7305 39.6963 42.2509C40.1652 41.7712 40.4286 41.1206 40.4286 40.4423V39.3462H41.5C42.163 39.3462 42.7989 39.0767 43.2678 38.597C43.7366 38.1174 44 37.4668 44 36.7885V31.3077C44 30.3386 43.6237 29.4093 42.954 28.724C42.2842 28.0388 41.3758 27.6538 40.4286 27.6538H39.7143V26.5577C39.7143 25.8794 39.4509 25.2288 38.9821 24.7491C38.5132 24.2695 37.8773 24 37.2143 24H30.7857C30.1227 24 29.4868 24.2695 29.0179 24.7491C28.5491 25.2288 28.2857 25.8794 28.2857 26.5577ZM30.7857 25.4615H37.2143C37.4984 25.4615 37.771 25.577 37.9719 25.7826C38.1728 25.9882 38.2857 26.267 38.2857 26.5577V27.6538H29.7143V26.5577C29.7143 26.267 29.8272 25.9882 30.0281 25.7826C30.229 25.577 30.5016 25.4615 30.7857 25.4615ZM29 36.0577C29 35.767 29.1129 35.4882 29.3138 35.2826C29.5147 35.077 29.7873 34.9615 30.0714 34.9615H37.9286C38.2127 34.9615 38.4853 35.077 38.6862 35.2826C38.8871 35.4882 39 35.767 39 36.0577V40.4423C39 40.733 38.8871 41.0118 38.6862 41.2174C38.4853 41.423 38.2127 41.5385 37.9286 41.5385H30.0714C29.7873 41.5385 29.5147 41.423 29.3138 41.2174C29.1129 41.0118 29 40.733 29 40.4423V36.0577Z" fill="white"/>
<defs>
<filter id="filter0_ddii_3247_829" x="0" y="0" width="67" height="67" filterUnits="userSpaceOnUse" color-interpolation-filters="sRGB">
<feFlood flood-opacity="0" result="BackgroundImageFix"/>
<feColorMatrix in="SourceAlpha" type="matrix" values="0 0 0 0 0 0 0 0 0 0 0 0 0 0 0 0 0 0 127 0" result="hardAlpha"/>
<feOffset dx="4" dy="4"/>
<feGaussianBlur stdDeviation="4"/>
<feComposite in2="hardAlpha" operator="out"/>
<feColorMatrix type="matrix" values="0 0 0 0 0 0 0 0 0 0 0 0 0 0 0 0 0 0 0.2 0"/>
<feBlend mode="normal" in2="BackgroundImageFix" result="effect1_dropShadow_3247_829"/>
<feColorMatrix in="SourceAlpha" type="matrix" values="0 0 0 0 0 0 0 0 0 0 0 0 0 0 0 0 0 0 127 0" result="hardAlpha"/>
<feOffset dx="-4" dy="-4"/>
<feGaussianBlur stdDeviation="4"/>
<feComposite in2="hardAlpha" operator="out"/>
<feColorMatrix type="matrix" values="0 0 0 0 1 0 0 0 0 1 0 0 0 0 1 0 0 0 0.2 0"/>
<feBlend mode="normal" in2="effect1_dropShadow_3247_829" result="effect2_dropShadow_3247_829"/>
<feBlend mode="normal" in="SourceGraphic" in2="effect2_dropShadow_3247_829" result="shape"/>
<feColorMatrix in="SourceAlpha" type="matrix" values="0 0 0 0 0 0 0 0 0 0 0 0 0 0 0 0 0 0 127 0" result="hardAlpha"/>
<feOffset dx="2" dy="2"/>
<feGaussianBlur stdDeviation="2"/>
<feComposite in2="hardAlpha" operator="arithmetic" k2="-1" k3="1"/>
<feColorMatrix type="matrix" values="0 0 0 0 1 0 0 0 0 1 0 0 0 0 1 0 0 0 0.15 0"/>
<feBlend mode="normal" in2="shape" result="effect3_innerShadow_3247_829"/>
<feColorMatrix in="SourceAlpha" type="matrix" values="0 0 0 0 0 0 0 0 0 0 0 0 0 0 0 0 0 0 127 0" result="hardAlpha"/>
<feOffset dx="-2" dy="-2"/>
<feGaussianBlur stdDeviation="2"/>
<feComposite in2="hardAlpha" operator="arithmetic" k2="-1" k3="1"/>
<feColorMatrix type="matrix" values="0 0 0 0 0 0 0 0 0 0 0 0 0 0 0 0 0 0 0.2 0"/>
<feBlend mode="normal" in2="effect3_innerShadow_3247_829" result="effect4_innerShadow_3247_829"/>
</filter>
</defs>
</svg>
