<svg width="24" height="24" viewBox="0 0 24 24" fill="none" xmlns="http://www.w3.org/2000/svg">
<circle cx="12" cy="12" r="12" fill="black"/>
<path d="M18 15.6566C18 15.9259 17.9057 16.1549 17.7172 16.3434L16.3434 17.7172C16.1549 17.9057 15.9259 18 15.6566 18C15.3872 18 15.1582 17.9057 14.9697 17.7172L12 14.7475L9.0303 17.7172C8.84175 17.9057 8.61279 18 8.34343 18C8.07407 18 7.84512 17.9057 7.65657 17.7172L6.28283 16.3434C6.09428 16.1549 6 15.9259 6 15.6566C6 15.3872 6.09428 15.1582 6.28283 14.9697L9.25253 12L6.28283 9.0303C6.09428 8.84175 6 8.61279 6 8.34343C6 8.07407 6.09428 7.84512 6.28283 7.65657L7.65657 6.28283C7.84512 6.09428 8.07407 6 8.34343 6C8.61279 6 8.84175 6.09428 9.0303 6.28283L12 9.25253L14.9697 6.28283C15.1582 6.09428 15.3872 6 15.6566 6C15.9259 6 16.1549 6.09428 16.3434 6.28283L17.7172 7.65657C17.9057 7.84512 18 8.07407 18 8.34343C18 8.61279 17.9057 8.84175 17.7172 9.0303L14.7475 12L17.7172 14.9697C17.9057 15.1582 18 15.3872 18 15.6566Z" fill="white"/>
</svg>
